<svg width="200" height="200" viewBox="0 0 200 200" xmlns="http://www.w3.org/2000/svg">
  <!-- Define gradients -->
  <defs>
    <linearGradient id="blueGradient" x1="0%" y1="0%" x2="100%" y2="100%">
      <stop offset="0%" style="stop-color:#00a2ff;stop-opacity:1" />
      <stop offset="100%" style="stop-color:#0066cc;stop-opacity:1" />
    </linearGradient>
    <linearGradient id="purpleGradient" x1="0%" y1="0%" x2="100%" y2="100%">
      <stop offset="0%" style="stop-color:#9933ff;stop-opacity:1" />
      <stop offset="100%" style="stop-color:#6600cc;stop-opacity:1" />
    </linearGradient>
  </defs>
  
  <!-- Letter B outline -->
  <path d="M40 40 L40 160 L100 160 C130 160 150 140 150 110 C150 90 140 75 125 70 C140 65 150 50 150 30 C150 20 140 40 100 40 Z" 
        fill="none" 
        stroke="url(#blueGradient)" 
        stroke-width="4"/>
  
  <!-- Circuit lines inside B -->
  <g stroke="url(#purpleGradient)" stroke-width="2" fill="none">
    <path d="M50 60 L80 60 L80 80 L110 80"/>
    <path d="M50 100 L70 100 L70 120 L90 120"/>
    <path d="M50 140 L80 140 L80 120 L110 120"/>
    <path d="M60 60 L60 140"/>
    <path d="M80 80 L80 120"/>
    <path d="M110 80 L110 120"/>
  </g>
  
  <!-- Circuit nodes -->
  <g fill="url(#blueGradient)">
    <circle cx="50" cy="60" r="4"/>
    <circle cx="80" cy="60" r="4"/>
    <circle cx="80" cy="80" r="4"/>
    <circle cx="110" cy="80" r="4"/>
    <circle cx="50" cy="100" r="4"/>
    <circle cx="70" cy="100" r="4"/>
    <circle cx="70" cy="120" r="4"/>
    <circle cx="90" cy="120" r="4"/>
    <circle cx="50" cy="140" r="4"/>
    <circle cx="80" cy="140" r="4"/>
    <circle cx="80" cy="120" r="4"/>
    <circle cx="110" cy="120" r="4"/>
    <circle cx="60" cy="60" r="3"/>
    <circle cx="60" cy="100" r="3"/>
    <circle cx="60" cy="140" r="3"/>
    <circle cx="80" cy="100" r="3"/>
  </g>
  
  <!-- Additional circuit details -->
  <g stroke="url(#purpleGradient)" stroke-width="1" fill="none" opacity="0.7">
    <path d="M70 60 L70 80"/>
    <path d="M90 80 L90 100"/>
    <path d="M100 120 L100 140"/>
    <path d="M120 80 L130 80 L130 100 L120 100"/>
  </g>
</svg>